<?xml version="1.0" standalone="no"?>
<!DOCTYPE svg PUBLIC "-//W3C//DTD SVG 20010904//EN"
 "http://www.w3.org/TR/2001/REC-SVG-20010904/DTD/svg10.dtd">
<svg version="1.0" xmlns="http://www.w3.org/2000/svg"
 width="512.000000pt" height="512.000000pt" viewBox="0 0 512.000000 512.000000"
 preserveAspectRatio="xMidYMid meet">
<metadata>
Created by potrace 1.14, written by Peter Selinger 2001-2017
</metadata>
<g transform="translate(0.000000,512.000000) scale(0.100000,-0.100000)"
fill="#000000" stroke="none">
<path d="M2812 4863 l3 -257 95 -17 c325 -59 627 -188 875 -375 794 -597 1051
-1660 615 -2549 -197 -402 -514 -726 -906 -925 -201 -103 -390 -163 -646 -205
l-38 -6 0 -255 0 -255 48 6 c712 94 1322 444 1744 1000 206 273 378 643 452
975 91 412 81 854 -30 1254 -203 734 -720 1338 -1416 1652 -205 93 -526 182
-746 208 l-52 7 2 -258z"/>
<path d="M2215 5103 c-343 -46 -692 -168 -985 -345 -108 -65 -290 -196 -290
-208 0 -11 351 -370 361 -370 5 0 42 24 82 54 218 161 529 296 801 347 l116
22 0 253 0 254 -27 -1 c-16 -1 -41 -4 -58 -6z"/>
<path d="M491 4084 c-192 -257 -340 -571 -420 -895 -29 -117 -61 -297 -61
-347 l0 -22 252 2 252 3 8 45 c21 113 53 244 85 340 61 183 184 420 295 568
l32 43 -179 179 c-99 99 -182 180 -186 180 -3 0 -38 -43 -78 -96z"/>
<path d="M2302 3078 l3 -772 663 -398 c365 -219 667 -398 672 -398 10 0 183
279 184 298 1 7 -255 165 -569 351 l-570 339 -3 676 -2 676 -190 0 -190 0 2
-772z"/>
<path d="M10 2295 c0 -8 7 -61 15 -118 43 -286 150 -597 292 -852 53 -95 190
-302 234 -354 l20 -25 182 182 181 181 -32 45 c-182 253 -311 551 -364 836
l-22 120 -253 0 c-219 0 -253 -2 -253 -15z"/>
<path d="M1117 756 c-98 -94 -177 -174 -177 -177 0 -4 39 -36 88 -72 280 -209
614 -366 948 -446 132 -32 303 -61 317 -54 4 2 7 117 7 254 0 191 -3 250 -12
253 -7 2 -67 13 -132 25 -246 46 -513 157 -736 306 -63 42 -117 78 -120 80 -3
1 -85 -74 -183 -169z"/>
</g>
</svg>
